<svg xmlns="http://www.w3.org/2000/svg" viewBox="0 0 336.7 65.73"><defs><style>.cls-1{fill:#1d1d1b;}.cls-2{fill:#ce0e2d;}</style></defs><title>Recurso 5</title><g id="Capa_2" data-name="Capa 2"><g id="Capa_3" data-name="Capa 3"><path class="cls-1" d="M4.2,5.53A1.12,1.12,0,0,1,3.07,6.7,1.1,1.1,0,0,1,2,5.53,1.1,1.1,0,0,1,3.08,4.36,1.1,1.1,0,0,1,4.2,5.53Zm-2,11.28L2.45,8.2H3.7L4,16.81Z"/><path class="cls-1" d="M9.58,1V7.9c0,2.89,1.36,4.19,3.25,4.19,2.05,0,3.39-1.33,3.39-4.19V1h1.65V7.82c0,3.95-2.19,5.58-5.12,5.58-2.71,0-4.82-1.49-4.82-5.54V1Z"/><path class="cls-1" d="M20.55,6.83c0-.88,0-1.67-.08-2.4h1.47L22,6h0a3.57,3.57,0,0,1,3.2-1.79c1.2,0,3.41.67,3.41,4v5H27V8.33c0-1.54-.65-2.77-2.3-2.77a2.62,2.62,0,0,0-2.42,1.7A2.32,2.32,0,0,0,22.2,8v5.2H20.55Z"/><path class="cls-1" d="M33.15,1.88a1,1,0,0,1-1.06,1,1,1,0,0,1-1-1,1,1,0,0,1,1-1A1,1,0,0,1,33.15,1.88ZM31.28,13.19V4.43h1.65v8.76Z"/><path class="cls-1" d="M43.91.22V10.87c0,.84,0,1.68.08,2.32H42.5l-.08-1.66h0A3.59,3.59,0,0,1,39,13.4,4.21,4.21,0,0,1,34.87,9a4.43,4.43,0,0,1,4.37-4.76,3.39,3.39,0,0,1,3,1.43h0V.22ZM42.26,8.07a2.94,2.94,0,0,0-.08-.72,2.66,2.66,0,0,0-2.64-1.87c-1.82,0-3,1.39-3,3.37a2.94,2.94,0,0,0,3,3.23A2.74,2.74,0,0,0,42.18,10a2.69,2.69,0,0,0,.08-.72Z"/><path class="cls-1" d="M55.36,8.7a4.58,4.58,0,0,1-4.83,4.7,4.43,4.43,0,0,1-4.67-4.51,4.56,4.56,0,0,1,4.82-4.68A4.4,4.4,0,0,1,55.36,8.7Zm-7.8.13a3.08,3.08,0,0,0,3,3.35,3.11,3.11,0,0,0,3.08-3.41,3.09,3.09,0,0,0-3-3.34C48.56,5.43,47.56,7.06,47.56,8.83Z"/><path class="cls-1" d="M57.08,11.51a4.94,4.94,0,0,0,2.35.68c1.28,0,1.83-.6,1.83-1.32s-.53-1.18-1.79-1.57C57.74,8.79,57,7.89,57,6.83c0-1.41,1.18-2.62,3.24-2.62a4.71,4.71,0,0,1,2.34.57L62.12,6a4,4,0,0,0-2-.55c-1,0-1.56.53-1.56,1.23s.61,1.09,1.85,1.48c1.68.54,2.46,1.28,2.46,2.62s-1.2,2.65-3.48,2.65a5.74,5.74,0,0,1-2.71-.64Z"/><path class="cls-1" d="M68.88,7.32c0-1,0-2-.08-2.89h1.49l.09,1.62h0a3.89,3.89,0,0,1,3.52-1.84,4.17,4.17,0,0,1,4.12,4.43,4.39,4.39,0,0,1-4.41,4.76,3.52,3.52,0,0,1-3.09-1.5h0v4.91H68.88ZM70.53,9.5a3.21,3.21,0,0,0,.06.63,2.84,2.84,0,0,0,2.75,2c1.87,0,3-1.32,3-3.41a3,3,0,0,0-3-3.22,2.9,2.9,0,0,0-2.9,2.73Z"/><path class="cls-1" d="M85.31,13.19,85.16,12h0a3.73,3.73,0,0,1-3,1.38,2.6,2.6,0,0,1-2.87-2.51c0-2.1,1.92-3.33,5.77-3.3V7.44a1.91,1.91,0,0,0-2.19-2,4.85,4.85,0,0,0-2.56.72L79.89,5a6.08,6.08,0,0,1,3.17-.83c3,0,3.6,2.06,3.6,3.74v3.1a13.81,13.81,0,0,0,.15,2.14Zm-.26-4.46c-2.06-.05-4.13.32-4.13,1.94a1.47,1.47,0,0,0,1.63,1.52A2.51,2.51,0,0,0,85,10.67a1.33,1.33,0,0,0,.09-.5Z"/><path class="cls-1" d="M89.23,7.31c0-1.13,0-2-.07-2.88H90.6l.06,1.83h.06a2.84,2.84,0,0,1,2.64-2,1.89,1.89,0,0,1,.49,0V5.79a2.83,2.83,0,0,0-.62-.06A2.33,2.33,0,0,0,91,7.84a3.38,3.38,0,0,0-.07.72v4.63H89.23Z"/><path class="cls-1" d="M100.65,13.19,100.49,12h0a3.74,3.74,0,0,1-3,1.38,2.61,2.61,0,0,1-2.88-2.51c0-2.1,1.93-3.33,5.78-3.3V7.44a1.91,1.91,0,0,0-2.19-2,4.85,4.85,0,0,0-2.56.72L95.22,5a6.11,6.11,0,0,1,3.18-.83c3,0,3.6,2.06,3.6,3.74v3.1a12.67,12.67,0,0,0,.15,2.14Zm-.26-4.46c-2.06-.05-4.13.32-4.13,1.94a1.47,1.47,0,0,0,1.63,1.52,2.51,2.51,0,0,0,2.41-1.52,1.56,1.56,0,0,0,.09-.5Z"/><path class="cls-1" d="M116.85.22V10.87c0,.84,0,1.68.07,2.32h-1.49l-.07-1.66h0A3.6,3.6,0,0,1,112,13.4,4.2,4.2,0,0,1,107.81,9a4.43,4.43,0,0,1,4.36-4.76,3.36,3.36,0,0,1,3,1.43h0V.22ZM115.2,8.07a2.94,2.94,0,0,0-.08-.72,2.66,2.66,0,0,0-2.64-1.87c-1.82,0-3,1.39-3,3.37a2.94,2.94,0,0,0,3,3.23A2.72,2.72,0,0,0,115.11,10a2.33,2.33,0,0,0,.09-.72Z"/><path class="cls-1" d="M120.38,9.15a3,3,0,0,0,3.31,3,6.92,6.92,0,0,0,2.75-.49l.3,1.17a8.07,8.07,0,0,1-3.26.6c-2.89,0-4.68-1.82-4.68-4.43a4.46,4.46,0,0,1,4.51-4.76c3.21,0,4,2.71,4,4.21a3.24,3.24,0,0,1-.06.73ZM125.68,8a2.4,2.4,0,0,0-2.49-2.59A2.82,2.82,0,0,0,120.4,8Z"/><path class="cls-1" d="M129.32,13.19V5.68h-1.26V4.43h1.26V4a4.28,4.28,0,0,1,1.1-3.21A3.29,3.29,0,0,1,132.67,0a3.77,3.77,0,0,1,1.45.27l-.2,1.27a2.58,2.58,0,0,0-1.11-.22C131.35,1.32,131,2.56,131,4v.45h2.29V5.68H131v7.51Z"/><path class="cls-1" d="M135.25,9.15a3,3,0,0,0,3.31,3,7,7,0,0,0,2.75-.49l.29,1.17a8.05,8.05,0,0,1-3.25.6c-2.89,0-4.68-1.82-4.68-4.43a4.46,4.46,0,0,1,4.51-4.76c3.21,0,4,2.71,4,4.21a2.65,2.65,0,0,1-.07.73ZM140.55,8a2.41,2.41,0,0,0-2.5-2.59A2.82,2.82,0,0,0,135.27,8Z"/><path class="cls-1" d="M144.08,6.83c0-.88,0-1.67-.07-2.4h1.47L145.57,6h.05a3.56,3.56,0,0,1,3.19-1.79c1.2,0,3.41.67,3.41,4v5h-1.65V8.33c0-1.54-.65-2.77-2.3-2.77a2.63,2.63,0,0,0-2.42,1.7,2.32,2.32,0,0,0-.12.73v5.2h-1.65Z"/><path class="cls-1" d="M163.13.22V10.87c0,.84,0,1.68.08,2.32h-1.49l-.08-1.66h0a3.59,3.59,0,0,1-3.35,1.87A4.21,4.21,0,0,1,154.09,9a4.43,4.43,0,0,1,4.37-4.76,3.38,3.38,0,0,1,3,1.43h0V.22Zm-1.65,7.85a2.94,2.94,0,0,0-.08-.72,2.66,2.66,0,0,0-2.64-1.87c-1.81,0-3,1.39-3,3.37a2.94,2.94,0,0,0,3,3.23A2.74,2.74,0,0,0,161.4,10a2.69,2.69,0,0,0,.08-.72Z"/><path class="cls-1" d="M166.67,9.15a3,3,0,0,0,3.3,3,6.92,6.92,0,0,0,2.75-.49l.3,1.17a8.05,8.05,0,0,1-3.25.6c-2.89,0-4.69-1.82-4.69-4.43a4.46,4.46,0,0,1,4.51-4.76c3.22,0,4,2.71,4,4.21a3.12,3.12,0,0,1-.07.73ZM172,8a2.41,2.41,0,0,0-2.5-2.59A2.82,2.82,0,0,0,166.69,8Z"/><path class="cls-1" d="M175.49,7.31c0-1.13,0-2-.07-2.88h1.45l.06,1.83H177a2.84,2.84,0,0,1,2.64-2,1.89,1.89,0,0,1,.49,0V5.79a2.86,2.86,0,0,0-.63-.06,2.33,2.33,0,0,0-2.28,2.11,4.18,4.18,0,0,0-.07.72v4.63h-1.65Z"/><path class="cls-1" d="M185.65,6.83c0-.88,0-1.67-.07-2.4h1.47L187.14,6h.05a3.56,3.56,0,0,1,3.19-1.79c1.21,0,3.41.67,3.41,4v5h-1.65V8.33c0-1.54-.64-2.77-2.29-2.77a2.62,2.62,0,0,0-2.42,1.7,2.07,2.07,0,0,0-.13.73v5.2h-1.65Z"/><path class="cls-1" d="M204.41,10.79c0,.9,0,1.69.07,2.4H203l-.09-1.61h0a3.6,3.6,0,0,1-3.24,1.82c-1.32,0-3.31-.62-3.31-4v-5H198V9.1c0,1.77.62,2.94,2.22,2.94a2.65,2.65,0,0,0,2.39-1.56,2.31,2.31,0,0,0,.17-.83V4.43h1.65Z"/><path class="cls-1" d="M207.93,9.15a3,3,0,0,0,3.31,3,6.92,6.92,0,0,0,2.75-.49l.3,1.17a8.05,8.05,0,0,1-3.25.6c-2.89,0-4.69-1.82-4.69-4.43a4.46,4.46,0,0,1,4.51-4.76c3.22,0,4,2.71,4,4.21a3.24,3.24,0,0,1-.06.73ZM213.23,8a2.39,2.39,0,0,0-2.49-2.59A2.81,2.81,0,0,0,208,8Z"/><path class="cls-1" d="M216.54,11.51a4.89,4.89,0,0,0,2.34.68c1.29,0,1.84-.6,1.84-1.32s-.53-1.18-1.79-1.57c-1.73-.51-2.52-1.41-2.52-2.47,0-1.41,1.18-2.62,3.24-2.62a4.71,4.71,0,0,1,2.34.57L221.58,6a4,4,0,0,0-2-.55c-1,0-1.56.53-1.56,1.23s.61,1.09,1.85,1.48c1.68.54,2.46,1.28,2.46,2.62s-1.21,2.65-3.49,2.65a5.73,5.73,0,0,1-2.7-.64Z"/><path class="cls-1" d="M226.35,1.84V4.43h2.49V5.68h-2.49v4.56c0,1.08.28,1.8,1.3,1.8a3.14,3.14,0,0,0,1-.14l.08,1.26a4.5,4.5,0,0,1-1.56.24,2.37,2.37,0,0,1-1.83-.72,3.42,3.42,0,0,1-.65-2.31V5.68h-1.45V4.43h1.45V2.25Z"/><path class="cls-1" d="M230.62,7.31c0-1.13,0-2-.08-2.88H232l.06,1.83h.06a2.84,2.84,0,0,1,2.64-2,1.89,1.89,0,0,1,.49,0V5.79a2.86,2.86,0,0,0-.63-.06,2.34,2.34,0,0,0-2.28,2.11,4.2,4.2,0,0,0-.06.72v4.63h-1.65Z"/><path class="cls-1" d="M245.42,8.7a4.58,4.58,0,0,1-4.83,4.7,4.43,4.43,0,0,1-4.67-4.51,4.56,4.56,0,0,1,4.82-4.68A4.4,4.4,0,0,1,245.42,8.7Zm-7.8.13a3.08,3.08,0,0,0,3,3.35,3.11,3.11,0,0,0,3.08-3.41,3.1,3.1,0,0,0-3-3.34C238.62,5.43,237.62,7.06,237.62,8.83Z"/><path class="cls-1" d="M247.14,11.51a4.94,4.94,0,0,0,2.35.68c1.28,0,1.83-.6,1.83-1.32s-.53-1.18-1.79-1.57C247.8,8.79,247,7.89,247,6.83c0-1.41,1.18-2.62,3.24-2.62a4.71,4.71,0,0,1,2.34.57L252.18,6a4,4,0,0,0-2-.55c-1,0-1.56.53-1.56,1.23s.61,1.09,1.85,1.48c1.68.54,2.46,1.28,2.46,2.62s-1.2,2.65-3.48,2.65a5.74,5.74,0,0,1-2.71-.64Z"/><path class="cls-1" d="M267.26.22V10.87c0,.84,0,1.68.07,2.32h-1.49l-.08-1.66h0a3.59,3.59,0,0,1-3.35,1.87A4.21,4.21,0,0,1,258.21,9a4.43,4.43,0,0,1,4.37-4.76,3.38,3.38,0,0,1,3,1.43h0V.22ZM265.6,8.07a2.94,2.94,0,0,0-.08-.72,2.66,2.66,0,0,0-2.64-1.87c-1.81,0-3,1.39-3,3.37a2.94,2.94,0,0,0,3,3.23A2.74,2.74,0,0,0,265.52,10a2.69,2.69,0,0,0,.08-.72Z"/><path class="cls-1" d="M270.79,9.15a3,3,0,0,0,3.3,3,6.92,6.92,0,0,0,2.75-.49l.3,1.17a8.05,8.05,0,0,1-3.25.6c-2.89,0-4.69-1.82-4.69-4.43a4.46,4.46,0,0,1,4.51-4.76c3.22,0,4,2.71,4,4.21a3.12,3.12,0,0,1-.07.73ZM276.09,8a2.41,2.41,0,0,0-2.5-2.59A2.82,2.82,0,0,0,270.81,8Z"/><path class="cls-1" d="M279.61,7.31c0-1.13,0-2-.07-2.88H281l.06,1.83h.06a2.84,2.84,0,0,1,2.64-2,1.89,1.89,0,0,1,.49,0V5.79a2.86,2.86,0,0,0-.63-.06,2.33,2.33,0,0,0-2.28,2.11,4.18,4.18,0,0,0-.07.72v4.63h-1.65Z"/><path class="cls-1" d="M286.51,9.15c0,2,1.5,3,3.3,3a6.92,6.92,0,0,0,2.75-.49l.3,1.17a8.05,8.05,0,0,1-3.25.6c-2.89,0-4.69-1.82-4.69-4.43a4.46,4.46,0,0,1,4.51-4.76c3.22,0,4,2.71,4,4.21a3.24,3.24,0,0,1-.06.73ZM291.8,8a2.39,2.39,0,0,0-2.49-2.59A2.81,2.81,0,0,0,286.53,8Z"/><path class="cls-1" d="M302.24,12.83a7,7,0,0,1-2.87.57,4.4,4.4,0,0,1-4.76-4.48c0-2.77,2-4.71,5.12-4.71a5.88,5.88,0,0,1,2.54.53L301.89,6a4.4,4.4,0,0,0-2.15-.48,3.18,3.18,0,0,0-3.45,3.29,3.18,3.18,0,0,0,3.38,3.28,5.46,5.46,0,0,0,2.27-.48Z"/><path class="cls-1" d="M304.1.22h1.65V5.94h0a3.42,3.42,0,0,1,1.28-1.25,3.63,3.63,0,0,1,1.79-.48c1.2,0,3.39.67,3.39,4v5h-1.65V8.35c0-1.53-.63-2.78-2.31-2.78a2.67,2.67,0,0,0-2.41,1.66,1.91,1.91,0,0,0-.12.79v5.17H304.1Z"/><path class="cls-1" d="M323.61,8.7a4.58,4.58,0,0,1-4.83,4.7,4.43,4.43,0,0,1-4.67-4.51,4.56,4.56,0,0,1,4.82-4.68A4.4,4.4,0,0,1,323.61,8.7Zm-7.8.13a3.08,3.08,0,0,0,3,3.35,3.11,3.11,0,0,0,3.08-3.41,3.1,3.1,0,0,0-3-3.34C316.81,5.43,315.81,7.06,315.81,8.83Z"/><path class="cls-1" d="M325.33,11.51a4.94,4.94,0,0,0,2.35.68c1.28,0,1.83-.6,1.83-1.32S329,9.69,327.72,9.3c-1.73-.51-2.52-1.41-2.51-2.47,0-1.41,1.17-2.62,3.23-2.62a4.71,4.71,0,0,1,2.34.57L330.37,6a4,4,0,0,0-2-.55c-1,0-1.56.53-1.56,1.23s.61,1.09,1.85,1.48c1.68.54,2.46,1.28,2.46,2.62s-1.2,2.65-3.48,2.65a5.74,5.74,0,0,1-2.71-.64Z"/><path class="cls-1" d="M334.2,12.24a1.13,1.13,0,1,1,1.12,1.16A1.1,1.1,0,0,1,334.2,12.24Zm.49-2.6L334.41,1h1.82L336,9.64Z"/><path class="cls-1" d="M60.87,35.27h-2.7V33.65h7.16v1.62H62.6v9H60.87Z"/><path class="cls-1" d="M65.5,39c0-1,0-1.77-.06-2.45h1.5L67,38h0a2.09,2.09,0,0,1,1.87-1.63,1.32,1.32,0,0,1,.41.05v1.82a1.88,1.88,0,0,0-.51-.06,1.59,1.59,0,0,0-1.55,1.46,3.57,3.57,0,0,0,0,.59v4H65.5Z"/><path class="cls-1" d="M74.05,44.23l-.12-.85h0a2.4,2.4,0,0,1-2,1,2.15,2.15,0,0,1-2.16-2.27c0-1.93,1.54-2.91,4.06-2.89v-.13a1.22,1.22,0,0,0-1.39-1.33,3.37,3.37,0,0,0-1.84.57l-.34-1.26a4.53,4.53,0,0,1,2.48-.68c2.19,0,2.81,1.55,2.81,3.23v2.75a12.1,12.1,0,0,0,.11,1.84Zm-.23-3.74c-1.22,0-2.38.27-2.38,1.43a1,1,0,0,0,1,1.1A1.42,1.42,0,0,0,73.77,42a1.47,1.47,0,0,0,0-.42Z"/><path class="cls-1" d="M77.11,44.23c0-.51.06-1.36.06-2.14v-9H78.9v4.56h0a2.37,2.37,0,0,1,2.18-1.23C82.78,36.41,84,38,84,40.29,84,43,82.4,44.4,80.85,44.4a2.28,2.28,0,0,1-2.15-1.32h0l-.08,1.15Zm1.79-3.16a2.15,2.15,0,0,0,0,.45,1.62,1.62,0,0,0,1.53,1.36c1.08,0,1.73-1,1.73-2.51,0-1.35-.58-2.45-1.72-2.45A1.66,1.66,0,0,0,79,39.33a2.57,2.57,0,0,0,0,.5Z"/><path class="cls-1" d="M89.06,44.23,89,43.38h0a2.4,2.4,0,0,1-2,1,2.14,2.14,0,0,1-2.15-2.27c0-1.93,1.53-2.91,4.05-2.89v-.13a1.22,1.22,0,0,0-1.39-1.33,3.37,3.37,0,0,0-1.84.57l-.34-1.26a4.56,4.56,0,0,1,2.48-.68c2.19,0,2.82,1.55,2.82,3.23v2.75a13.74,13.74,0,0,0,.1,1.84Zm-.22-3.74c-1.22,0-2.39.27-2.39,1.43a1,1,0,0,0,1,1.1A1.44,1.44,0,0,0,88.79,42a1.93,1.93,0,0,0,0-.42Z"/><path class="cls-1" d="M90.66,46a1.86,1.86,0,0,0,1.3-.54c.32-.39.45-1,.45-2.66V36.59h1.73v6.76a4.59,4.59,0,0,1-.9,3.26,3.35,3.35,0,0,1-2.41.9Zm3.57-11.55a1,1,0,1,1-1.93,0,1,1,0,0,1,1-1.05A1,1,0,0,1,94.23,34.45Z"/><path class="cls-1" d="M99.65,44.23l-.11-.85h-.05a2.4,2.4,0,0,1-2,1,2.14,2.14,0,0,1-2.15-2.27c0-1.93,1.53-2.91,4-2.89v-.13A1.22,1.22,0,0,0,98,37.78a3.37,3.37,0,0,0-1.84.57l-.34-1.26a4.56,4.56,0,0,1,2.48-.68c2.19,0,2.82,1.55,2.82,3.23v2.75a13.74,13.74,0,0,0,.1,1.84Zm-.23-3.74c-1.21,0-2.38.27-2.38,1.43A1,1,0,0,0,98,43,1.44,1.44,0,0,0,99.38,42a1.93,1.93,0,0,0,0-.42Z"/><path class="cls-1" d="M109.07,33.08v9c0,.78,0,1.62.06,2.14h-1.54L107.51,43h0a2.39,2.39,0,0,1-2.22,1.38c-1.63,0-2.92-1.55-2.92-3.9,0-2.56,1.42-4.09,3.06-4.09a2.11,2.11,0,0,1,1.92,1h0V33.08Zm-1.73,6.69a2.8,2.8,0,0,0,0-.5,1.58,1.58,0,0,0-1.49-1.36c-1.11,0-1.73,1.1-1.73,2.51s.62,2.44,1.71,2.44a1.58,1.58,0,0,0,1.49-1.38,2.48,2.48,0,0,0,0-.56Z"/><path class="cls-1" d="M117.26,40.33c0,2.81-1.76,4.07-3.51,4.07-1.93,0-3.42-1.48-3.42-3.94s1.48-4.05,3.54-4.05S117.26,38,117.26,40.33Zm-5.15.09c0,1.47.65,2.58,1.69,2.58s1.68-1.07,1.68-2.61c0-1.2-.47-2.57-1.66-2.57S112.11,39.14,112.11,40.42Z"/><path class="cls-1" d="M118.52,39c0-1,0-1.77-.06-2.45H120L120,38h0a2.08,2.08,0,0,1,1.87-1.63,1.32,1.32,0,0,1,.41.05v1.82a1.88,1.88,0,0,0-.51-.06,1.59,1.59,0,0,0-1.55,1.46,3.57,3.57,0,0,0,0,.59v4h-1.73Z"/><path class="cls-1" d="M124.44,40.94a1.94,1.94,0,0,0,2.11,2,4.79,4.79,0,0,0,1.89-.35l.25,1.33a5.52,5.52,0,0,1-2.38.49c-2.22,0-3.52-1.54-3.52-3.88,0-2.11,1.14-4.11,3.34-4.11s2.94,2.05,2.94,3.72a3.9,3.9,0,0,1-.06.81Zm3-1.34c0-.71-.27-1.87-1.43-1.87s-1.5,1.08-1.58,1.87Z"/><path class="cls-1" d="M130.22,42.45A3.45,3.45,0,0,0,132,43c.77,0,1.11-.36,1.11-.86s-.29-.78-1.13-1.11c-1.33-.51-1.89-1.33-1.89-2.23a2.39,2.39,0,0,1,2.6-2.4,3.56,3.56,0,0,1,1.81.46l-.34,1.36a2.8,2.8,0,0,0-1.45-.44c-.61,0-1,.34-1,.81s.33.72,1.2,1.07A2.37,2.37,0,0,1,134.73,42c0,1.39-1,2.4-2.77,2.4a4.13,4.13,0,0,1-2.09-.54Z"/><path class="cls-1" d="M145,33.08v9c0,.78,0,1.62.05,2.14h-1.53L143.47,43h0a2.4,2.4,0,0,1-2.22,1.38c-1.63,0-2.93-1.55-2.93-3.9,0-2.56,1.42-4.09,3.07-4.09a2.1,2.1,0,0,1,1.91,1h0V33.08Zm-1.73,6.69a2.81,2.81,0,0,0,0-.5,1.57,1.57,0,0,0-1.48-1.36c-1.12,0-1.73,1.1-1.73,2.51s.62,2.44,1.71,2.44a1.59,1.59,0,0,0,1.49-1.38,2.48,2.48,0,0,0,.05-.56Z"/><path class="cls-1" d="M147.94,40.94a1.94,1.94,0,0,0,2.11,2,4.87,4.87,0,0,0,1.89-.35l.25,1.33a5.53,5.53,0,0,1-2.39.49c-2.22,0-3.51-1.54-3.51-3.88,0-2.11,1.14-4.11,3.34-4.11s2.94,2.05,2.94,3.72a4.77,4.77,0,0,1-.06.81Zm3-1.34c0-.71-.26-1.87-1.42-1.87s-1.51,1.08-1.58,1.87Z"/><path class="cls-1" d="M156.54,33.08h1.73V44.23h-1.73Z"/><path class="cls-1" d="M163.83,44.23l-.12-.85h0a2.42,2.42,0,0,1-2,1,2.14,2.14,0,0,1-2.15-2.27c0-1.93,1.53-2.91,4.05-2.89v-.13a1.22,1.22,0,0,0-1.39-1.33,3.31,3.31,0,0,0-1.83.57L160,37.09a4.56,4.56,0,0,1,2.48-.68c2.19,0,2.82,1.55,2.82,3.23v2.75a13.74,13.74,0,0,0,.1,1.84Zm-.23-3.74c-1.22,0-2.39.27-2.39,1.43a1,1,0,0,0,1,1.1A1.44,1.44,0,0,0,163.55,42a1.47,1.47,0,0,0,0-.42Z"/><path class="cls-1" d="M171.46,33.65v6.17c0,2.07.77,3,1.94,3s2-1,2-3V33.65h1.73v6c0,3.26-1.5,4.71-3.79,4.71s-3.61-1.37-3.61-4.7V33.65Z"/><path class="cls-1" d="M178.86,38.86c0-.88,0-1.61-.06-2.27h1.51l.08,1.14h0a2.48,2.48,0,0,1,2.18-1.32c1.19,0,2.43.86,2.43,3.28v4.54h-1.73V39.92c0-1.1-.36-1.93-1.3-1.93a1.47,1.47,0,0,0-1.35,1.13,2.22,2.22,0,0,0-.07.61v4.5h-1.73Z"/><path class="cls-1" d="M188.55,34.45a1,1,0,1,1-1-1.05A1,1,0,0,1,188.55,34.45Zm-1.83,9.78V36.59h1.73v7.64Z"/><path class="cls-1" d="M191.24,36.59l1.11,3.88c.19.67.33,1.29.46,1.91h0c.13-.63.28-1.23.47-1.91l1.08-3.88h1.82l-2.61,7.64h-1.7l-2.54-7.64Z"/><path class="cls-1" d="M198.15,40.94a1.94,1.94,0,0,0,2.11,2,4.87,4.87,0,0,0,1.89-.35l.25,1.33a5.53,5.53,0,0,1-2.39.49c-2.22,0-3.51-1.54-3.51-3.88,0-2.11,1.14-4.11,3.34-4.11s2.94,2.05,2.94,3.72a4.77,4.77,0,0,1-.06.81Zm3-1.34c0-.71-.26-1.87-1.42-1.87s-1.51,1.08-1.58,1.87Z"/><path class="cls-1" d="M204,39c0-1,0-1.77-.06-2.45h1.5l.06,1.45h.05a2.09,2.09,0,0,1,1.87-1.63,1.32,1.32,0,0,1,.41.05v1.82a1.88,1.88,0,0,0-.51-.06,1.59,1.59,0,0,0-1.55,1.46,3.57,3.57,0,0,0,0,.59v4H204Z"/><path class="cls-1" d="M208.76,42.45a3.42,3.42,0,0,0,1.74.56c.76,0,1.1-.36,1.1-.86s-.28-.78-1.12-1.11c-1.34-.51-1.89-1.33-1.89-2.23a2.39,2.39,0,0,1,2.59-2.4,3.57,3.57,0,0,1,1.82.46l-.35,1.36a2.76,2.76,0,0,0-1.44-.44c-.62,0-1,.34-1,.81s.33.72,1.2,1.07A2.39,2.39,0,0,1,213.27,42c0,1.39-1,2.4-2.78,2.4a4.09,4.09,0,0,1-2.08-.54Z"/><path class="cls-1" d="M216.36,34.45a1,1,0,1,1-1-1.05A1,1,0,0,1,216.36,34.45Zm-1.83,9.78V36.59h1.73v7.64Z"/><path class="cls-1" d="M224.25,33.08v9c0,.78,0,1.62.06,2.14h-1.54L222.69,43h0a2.38,2.38,0,0,1-2.22,1.38c-1.63,0-2.92-1.55-2.92-3.9,0-2.56,1.42-4.09,3.06-4.09a2.11,2.11,0,0,1,1.92,1h0V33.08Zm-1.72,6.69a2.81,2.81,0,0,0,0-.5A1.58,1.58,0,0,0,221,37.91c-1.11,0-1.73,1.1-1.73,2.51s.62,2.44,1.71,2.44a1.58,1.58,0,0,0,1.49-1.38,2.47,2.47,0,0,0,.06-.56Z"/><path class="cls-1" d="M229.79,44.23l-.11-.85h-.05a2.39,2.39,0,0,1-2,1,2.15,2.15,0,0,1-2.16-2.27c0-1.93,1.54-2.91,4.06-2.89v-.13a1.22,1.22,0,0,0-1.39-1.33,3.37,3.37,0,0,0-1.84.57L226,37.09a4.56,4.56,0,0,1,2.48-.68c2.19,0,2.82,1.55,2.82,3.23v2.75a13.74,13.74,0,0,0,.1,1.84Zm-.23-3.74c-1.21,0-2.38.27-2.38,1.43a1,1,0,0,0,1,1.1A1.44,1.44,0,0,0,229.52,42a1.93,1.93,0,0,0,0-.42Z"/><path class="cls-1" d="M239.21,33.08v9c0,.78,0,1.62.06,2.14h-1.54L237.65,43h0a2.39,2.39,0,0,1-2.22,1.38c-1.63,0-2.92-1.55-2.92-3.9,0-2.56,1.42-4.09,3.06-4.09a2.11,2.11,0,0,1,1.92,1h0V33.08Zm-1.73,6.69a2.8,2.8,0,0,0,0-.5A1.58,1.58,0,0,0,236,37.91c-1.11,0-1.73,1.1-1.73,2.51s.62,2.44,1.71,2.44a1.58,1.58,0,0,0,1.49-1.38,2.48,2.48,0,0,0,0-.56Z"/><path class="cls-1" d="M249.94,33.08v9c0,.78,0,1.62.06,2.14h-1.54L248.38,43h0a2.39,2.39,0,0,1-2.22,1.38c-1.63,0-2.92-1.55-2.92-3.9,0-2.56,1.42-4.09,3.06-4.09a2.11,2.11,0,0,1,1.92,1h0V33.08Zm-1.73,6.69a2.8,2.8,0,0,0,0-.5,1.58,1.58,0,0,0-1.49-1.36c-1.11,0-1.73,1.1-1.73,2.51s.62,2.44,1.71,2.44a1.58,1.58,0,0,0,1.49-1.38,2.48,2.48,0,0,0,.05-.56Z"/><path class="cls-1" d="M252.85,40.94a1.94,1.94,0,0,0,2.11,2,4.79,4.79,0,0,0,1.89-.35l.26,1.33a5.6,5.6,0,0,1-2.39.49c-2.22,0-3.52-1.54-3.52-3.88,0-2.11,1.14-4.11,3.34-4.11s3,2.05,3,3.72a3.75,3.75,0,0,1-.07.81Zm3-1.34c0-.71-.27-1.87-1.43-1.87s-1.5,1.08-1.58,1.87Z"/><path class="cls-1" d="M266.81,39.54h-3.57v3.1h4v1.59h-5.72V33.65H267v1.59h-3.78V38h3.57Z"/><path class="cls-1" d="M269.67,36.59l.81,1.44c.23.4.42.79.62,1.18h0c.2-.43.4-.82.6-1.21l.76-1.41h1.88l-2.28,3.66,2.32,4h-2l-.83-1.53c-.22-.41-.42-.81-.62-1.24h0c-.2.44-.4.83-.61,1.25l-.8,1.52h-1.9l2.37-3.9-2.29-3.74Z"/><path class="cls-1" d="M277.45,34.4v2.19h1.64V38h-1.64V41.4c0,.93.22,1.41.88,1.41a2.58,2.58,0,0,0,.67-.08l0,1.47a3.46,3.46,0,0,1-1.26.2,1.91,1.91,0,0,1-1.48-.63,3.27,3.27,0,0,1-.54-2.15V38h-1V36.59h1V34.86Z"/><path class="cls-1" d="M280.23,39c0-1,0-1.77-.06-2.45h1.5l.06,1.45h0a2.09,2.09,0,0,1,1.87-1.63,1.32,1.32,0,0,1,.41.05v1.82a1.88,1.88,0,0,0-.51-.06A1.59,1.59,0,0,0,282,39.68a3.57,3.57,0,0,0,0,.59v4h-1.73Z"/><path class="cls-1" d="M286.15,40.94a1.94,1.94,0,0,0,2.11,2,4.79,4.79,0,0,0,1.89-.35l.26,1.33a5.6,5.6,0,0,1-2.39.49c-2.22,0-3.52-1.54-3.52-3.88,0-2.11,1.14-4.11,3.34-4.11s3,2.05,3,3.72a4.77,4.77,0,0,1-.06.81Zm3-1.34c0-.71-.27-1.87-1.43-1.87s-1.5,1.08-1.58,1.87Z"/><path class="cls-1" d="M292,38.86c0-.88,0-1.61-.06-2.27h1.48l.07,1.12h0a2.34,2.34,0,0,1,2.11-1.3,2,2,0,0,1,1.9,1.41h0a3.07,3.07,0,0,1,.84-1,2.21,2.21,0,0,1,1.39-.45c1.13,0,2.28.87,2.28,3.32v4.5H300.4V40c0-1.27-.39-2-1.22-2a1.34,1.34,0,0,0-1.2,1,2.61,2.61,0,0,0-.08.64v4.59h-1.69V39.81c0-1.08-.38-1.83-1.18-1.83a1.41,1.41,0,0,0-1.24,1.09,2.3,2.3,0,0,0-.09.64v4.52H292Z"/><path class="cls-1" d="M307.6,44.23l-.12-.85h0a2.4,2.4,0,0,1-2,1,2.15,2.15,0,0,1-2.16-2.27c0-1.93,1.54-2.91,4.06-2.89v-.13a1.22,1.22,0,0,0-1.39-1.33,3.37,3.37,0,0,0-1.84.57l-.34-1.26a4.56,4.56,0,0,1,2.48-.68c2.19,0,2.81,1.55,2.81,3.23v2.75a13.56,13.56,0,0,0,.11,1.84Zm-.23-3.74c-1.22,0-2.38.27-2.38,1.43a1,1,0,0,0,1,1.1A1.44,1.44,0,0,0,307.33,42a1.93,1.93,0,0,0,0-.42Z"/><path class="cls-1" d="M317,33.08v9c0,.78,0,1.62.06,2.14h-1.54L315.46,43h0a2.39,2.39,0,0,1-2.22,1.38c-1.63,0-2.92-1.55-2.92-3.9,0-2.56,1.42-4.09,3.06-4.09a2.08,2.08,0,0,1,1.91,1h0V33.08Zm-1.73,6.69a2.81,2.81,0,0,0,0-.5,1.56,1.56,0,0,0-1.48-1.36c-1.12,0-1.73,1.1-1.73,2.51s.62,2.44,1.71,2.44a1.58,1.58,0,0,0,1.49-1.38,2.48,2.48,0,0,0,.05-.56Z"/><path class="cls-1" d="M324.83,41.94c0,.91,0,1.67.05,2.29h-1.5l-.09-1.15h0a2.45,2.45,0,0,1-2.19,1.32c-1.24,0-2.38-.83-2.38-3.33V36.59h1.73v4.16c0,1.27.36,2.08,1.28,2.08a1.46,1.46,0,0,0,1.32-1,2.16,2.16,0,0,0,.09-.6V36.59h1.73Z"/><path class="cls-1" d="M326.54,39c0-1,0-1.77-.06-2.45H328L328,38h0A2.08,2.08,0,0,1,330,36.41a1.32,1.32,0,0,1,.41.05v1.82a1.88,1.88,0,0,0-.51-.06,1.59,1.59,0,0,0-1.55,1.46,3.57,3.57,0,0,0,0,.59v4h-1.73Z"/><path class="cls-1" d="M335.09,44.23l-.12-.85h0a2.42,2.42,0,0,1-2,1,2.15,2.15,0,0,1-2.15-2.27c0-1.93,1.54-2.91,4.05-2.89v-.13a1.22,1.22,0,0,0-1.39-1.33,3.34,3.34,0,0,0-1.83.57l-.34-1.26a4.52,4.52,0,0,1,2.47-.68c2.2,0,2.82,1.55,2.82,3.23v2.75a12.1,12.1,0,0,0,.11,1.84Zm-.23-3.74c-1.22,0-2.39.27-2.39,1.43a1,1,0,0,0,1,1.1A1.43,1.43,0,0,0,334.81,42a1.47,1.47,0,0,0,.05-.42Z"/><path class="cls-2" d="M59.37,51.33a20.27,20.27,0,0,1,3-.21,4.85,4.85,0,0,1,3.27.94,2.9,2.9,0,0,1,1,2.28,3.13,3.13,0,0,1-.91,2.37,5,5,0,0,1-3.58,1.19,4.88,4.88,0,0,1-1.33-.13v4.34H59.37Zm1.47,5.26a5,5,0,0,0,1.39.15c1.87,0,3-.85,3-2.32S64,52.26,62.38,52.26a8.86,8.86,0,0,0-1.54.12Z"/><path class="cls-2" d="M68.49,51.36a24.85,24.85,0,0,1,3.44-.24,7.09,7.09,0,0,1,5,1.55,4.78,4.78,0,0,1,1.57,3.73,5.71,5.71,0,0,1-1.65,4.12,7.86,7.86,0,0,1-5.44,1.7,27.66,27.66,0,0,1-3-.13ZM70,61a12.07,12.07,0,0,0,1.73.08c3.57,0,5.29-1.9,5.29-4.59,0-2.52-1.63-4.19-5-4.19a10.12,10.12,0,0,0-2,.18Z"/><path class="cls-2" d="M81.73,51.21v10.9H80.26V51.21Z"/><path class="cls-2" d="M83.11,64.1a23.77,23.77,0,0,0,1-3.91L85.73,60a19.6,19.6,0,0,1-1.57,4Z"/><path class="cls-2" d="M90.91,51.33a20.27,20.27,0,0,1,3-.21,4.85,4.85,0,0,1,3.27.94,2.9,2.9,0,0,1,1,2.28,3.17,3.17,0,0,1-.9,2.37,5,5,0,0,1-3.59,1.19,4.88,4.88,0,0,1-1.33-.13v4.34H90.91Zm1.47,5.26a5,5,0,0,0,1.39.15c1.87,0,3-.85,3-2.32s-1.22-2.16-2.82-2.16a8.86,8.86,0,0,0-1.54.12Z"/><path class="cls-2" d="M100.45,58.63l-1.26,3.48H97.65l4.11-10.9h1.8l4.16,10.9h-1.6l-1.32-3.48Zm4-1.13-1.25-3.26c-.26-.69-.43-1.26-.6-1.82h0c-.16.57-.34,1.15-.57,1.79l-1.24,3.29Z"/><path class="cls-2" d="M109,60.3a5.46,5.46,0,0,0,2.84.8c1.54,0,2.44-.75,2.44-1.86s-.59-1.6-2.27-2.12c-2.09-.64-3.16-1.55-3.16-3.11,0-1.72,1.5-3,3.75-3a5.71,5.71,0,0,1,2.7.57l-.43,1.18a4.8,4.8,0,0,0-2.31-.56c-1.64,0-2.22.91-2.22,1.65,0,1,.69,1.51,2.35,2,2,.66,3.08,1.51,3.08,3.24s-1.2,3.17-4.07,3.17a6.29,6.29,0,0,1-3.1-.79Z"/><path class="cls-2" d="M116.62,64.1a24.8,24.8,0,0,0,1-3.91l1.63-.16a19.64,19.64,0,0,1-1.56,4Z"/><path class="cls-2" d="M124.43,51.21h6.44v1.21h-5V56h4.58v1.2H125.9v4.93h-1.47Z"/><path class="cls-2" d="M134.34,51.21v6.18c0,2.59,1.22,3.74,2.9,3.74,1.84,0,3-1.19,3-3.74V51.21h1.48v6.11c0,3.53-2,5-4.58,5-2.42,0-4.3-1.34-4.3-5V51.21Z"/><path class="cls-2" d="M144.17,62.11V51.21h1.67l4,5.64A31.53,31.53,0,0,1,152,60.32l0,0c-.13-1.37-.15-2.67-.15-4.3V51.21h1.39v10.9h-1.51l-3.93-5.62a38.14,38.14,0,0,1-2.27-3.63l-.06,0c.08,1.36.1,2.65.1,4.28v5Z"/><path class="cls-2" d="M164.22,61.71a8.22,8.22,0,0,1-3.32.6c-3.39,0-6-2-6-5.56,0-3.13,2.37-5.73,6.3-5.73a7,7,0,0,1,3,.55l-.37,1.17a6.26,6.26,0,0,0-2.56-.52c-3,0-4.82,1.8-4.82,4.51,0,2.44,1.63,4.35,4.71,4.35a6.6,6.6,0,0,0,2.7-.52Z"/><path class="cls-2" d="M167.4,51.21v10.9h-1.48V51.21Z"/><path class="cls-2" d="M180.35,56.54a5.49,5.49,0,0,1-5.7,5.77,5.33,5.33,0,0,1-5.52-5.52A5.52,5.52,0,0,1,174.79,51,5.31,5.31,0,0,1,180.35,56.54Zm-9.67.21a4.1,4.1,0,0,0,4,4.39c2.52,0,4.07-1.94,4.07-4.53,0-2.21-1.38-4.43-4-4.43S170.68,54.3,170.68,56.75Z"/><path class="cls-2" d="M182.08,62.11V51.21h1.67l4,5.64a31.53,31.53,0,0,1,2.13,3.47l0,0c-.13-1.37-.15-2.67-.15-4.3V51.21h1.39v10.9h-1.51l-3.93-5.62a38.14,38.14,0,0,1-2.27-3.63l-.06,0c.08,1.36.1,2.65.1,4.28v5Z"/><path class="cls-2" d="M195.48,58.63l-1.26,3.48h-1.55l4.12-10.9h1.79l4.16,10.9h-1.6l-1.31-3.48Zm4-1.13-1.25-3.26c-.26-.69-.43-1.26-.6-1.82h0c-.17.57-.34,1.15-.58,1.79L195.8,57.5Z"/><path class="cls-2" d="M204.21,51.36a18.34,18.34,0,0,1,3-.24,4.89,4.89,0,0,1,3.39.93,2.68,2.68,0,0,1,.89,2.06,2.88,2.88,0,0,1-2.16,2.76v.05A2.83,2.83,0,0,1,211,59a20.46,20.46,0,0,0,.91,3.07h-1.52a13.9,13.9,0,0,1-.76-2.58c-.35-1.49-1-2.08-2.33-2.13h-1.61v4.71h-1.46Zm1.46,4.94h1.74c1.62,0,2.62-.8,2.62-2,0-1.47-1.19-2-2.72-2a7.82,7.82,0,0,0-1.64.14Z"/><path class="cls-2" d="M214.88,51.21v10.9h-1.47V51.21Z"/><path class="cls-2" d="M227.83,56.54a5.49,5.49,0,0,1-5.7,5.77,5.33,5.33,0,0,1-5.52-5.52A5.52,5.52,0,0,1,222.27,51,5.31,5.31,0,0,1,227.83,56.54Zm-9.67.21a4.1,4.1,0,0,0,4.05,4.39c2.51,0,4.06-1.94,4.06-4.53,0-2.21-1.38-4.43-4-4.43S218.16,54.3,218.16,56.75Z"/><path class="cls-2" d="M229.4,60.3a5.4,5.4,0,0,0,2.83.8c1.54,0,2.44-.75,2.44-1.86s-.59-1.6-2.27-2.12c-2.08-.64-3.16-1.55-3.16-3.11,0-1.72,1.5-3,3.75-3a5.71,5.71,0,0,1,2.7.57l-.42,1.18a4.8,4.8,0,0,0-2.31-.56c-1.65,0-2.23.91-2.23,1.65,0,1,.69,1.51,2.36,2,2,.66,3.07,1.51,3.07,3.24s-1.2,3.17-4.07,3.17a6.35,6.35,0,0,1-3.1-.79Z"/><path class="cls-2" d="M242,54.29,244,59c.19.48.42,1.13.56,1.59h0c.16-.47.35-1.07.56-1.64l1.75-4.62h1.6l-2.43,5.76c-1.19,2.93-1.93,4.12-2.92,4.85a4.13,4.13,0,0,1-1.86.83L241,64.49a3.48,3.48,0,0,0,1.29-.6,4.26,4.26,0,0,0,1.35-1.67.79.79,0,0,0,.11-.33,1,1,0,0,0-.11-.39l-3.19-7.21Z"/><path class="cls-2" d="M253.22,51.21h1.48v9.67h5.19v1.23h-6.67Z"/><path class="cls-2" d="M263.31,58.63l-1.26,3.48h-1.54l4.11-10.9h1.8l4.16,10.9H269l-1.32-3.48Zm4-1.13-1.25-3.26c-.26-.69-.43-1.26-.61-1.82h0c-.16.57-.34,1.15-.57,1.79l-1.24,3.29Z"/><path class="cls-2" d="M272,51.36a15.19,15.19,0,0,1,2.82-.24,4.84,4.84,0,0,1,3.19.8,2.27,2.27,0,0,1,1,1.95,2.6,2.6,0,0,1-1.9,2.38v0A2.82,2.82,0,0,1,279.46,59a2.78,2.78,0,0,1-1,2.17c-.79.71-2.09,1-4.05,1a20.91,20.91,0,0,1-2.38-.13Zm1.46,4.46H275c1.63,0,2.5-.78,2.5-1.81,0-1.35-1.12-1.77-2.58-1.77a7.74,7.74,0,0,0-1.45.1Zm0,5.19a7.43,7.43,0,0,0,1.38.08c1.51,0,3-.46,3-2.11,0-1.47-1.37-2.06-3-2.06H273.5Z"/><path class="cls-2" d="M291.83,56.54a5.48,5.48,0,0,1-5.69,5.77,5.33,5.33,0,0,1-5.53-5.52A5.52,5.52,0,0,1,286.27,51,5.31,5.31,0,0,1,291.83,56.54Zm-9.66.21a4.1,4.1,0,0,0,4,4.39c2.51,0,4.06-1.94,4.06-4.53,0-2.21-1.38-4.43-4-4.43S282.17,54.3,282.17,56.75Z"/><path class="cls-2" d="M293.56,51.36a18.54,18.54,0,0,1,3-.24,4.92,4.92,0,0,1,3.4.93,2.71,2.71,0,0,1,.88,2.06,2.88,2.88,0,0,1-2.16,2.76v.05A2.86,2.86,0,0,1,300.34,59a18.25,18.25,0,0,0,.91,3.07h-1.53a14.78,14.78,0,0,1-.76-2.58c-.35-1.49-1-2.08-2.33-2.13H295v4.71h-1.46ZM295,56.3h1.74c1.62,0,2.62-.8,2.62-2,0-1.47-1.19-2-2.72-2a8,8,0,0,0-1.64.14Z"/><path class="cls-2" d="M304.75,58.63l-1.26,3.48h-1.55l4.11-10.9h1.8L312,62.11h-1.6l-1.32-3.48Zm4-1.13-1.25-3.26c-.26-.69-.43-1.26-.6-1.82h0c-.17.57-.34,1.15-.58,1.79l-1.24,3.29Z"/><path class="cls-2" d="M313.47,51.21H315v9.67h5.19v1.23h-6.67Z"/><path class="cls-2" d="M327.81,57h-4.73v3.88h5.27v1.2h-6.74V51.21h6.47v1.21h-5v3.4h4.73Z"/><path class="cls-2" d="M329.94,60.3a5.4,5.4,0,0,0,2.83.8c1.54,0,2.44-.75,2.44-1.86s-.59-1.6-2.27-2.12c-2.09-.64-3.16-1.55-3.16-3.11,0-1.72,1.5-3,3.75-3a5.71,5.71,0,0,1,2.7.57l-.42,1.18a4.81,4.81,0,0,0-2.32-.56c-1.64,0-2.22.91-2.22,1.65,0,1,.69,1.51,2.36,2,2,.66,3.07,1.51,3.07,3.24s-1.2,3.17-4.07,3.17a6.32,6.32,0,0,1-3.1-.79Z"/><path class="cls-2" d="M45.46,15h.24c.88.14,6.88.3,7.87.21a1.32,1.32,0,0,1,.34,0c.48.09,1,.22,1.44.28.81.1,1.63.15,2.44.25.32,0,.6.16.91.21,1.17.18,2.38.3,3.5.57a3.34,3.34,0,0,1,1.3.81c.33.29.15.85.91.92l-.5-.08-.14.42c-.28,0-.65,0-.7.11-.24.36-.36.69-1.1.54a11.39,11.39,0,0,0-1.86-.08l-1.29-.05-.09.11c.42.24.82.47,1.31.77,0,0-.19.19-.32.2a9.26,9.26,0,0,1-1.49,0c-.75-.07-1.5-.19-2.25-.27a.36.36,0,0,0-.21,0c-.31.17-.5.08-.58,0h-1a9.79,9.79,0,0,1-1.44-.07c-.42-.08-.94.22-1.27-.15a.13.13,0,0,0-.09,0,1.72,1.72,0,0,1-1,0,2,2,0,0,0-.69,0,6,6,0,0,1-2.38,0,2.11,2.11,0,0,0-.36,0l-.63,0c-.17.1-.43.31-.59,0H43.15a2.84,2.84,0,0,1-.86.12,5.16,5.16,0,0,0-1.92,0c-.79-.23-1.62.31-2.42,0,0,0,0,0-.05,0l-.18.18-1.35-.08-.07,0c-.18.31-.44.1-.59.07a2.23,2.23,0,0,1-.57.12,12.37,12.37,0,0,0-3.28.25c-.69.12-1.37.23-2.06.31s-1.56.13-2.32.24c-1.7.26-3.39.56-5.06.88-.87.17-1.72.37-2.58.55-.35.08-.72.13-1.13.2a1.16,1.16,0,0,0,.26-.14A1,1,0,0,1,19.9,22a.6.6,0,0,0,.29-.08A3.35,3.35,0,0,1,22,21.34a1.66,1.66,0,0,0,.52-.17L22.2,21l1.51-.23c0-.09,0-.18,0-.28l-1,.2-.08-.15-1,.33a1.44,1.44,0,0,0-.12-.17.83.83,0,0,1-1,.18c-.32.08-.57.15-.83.2-.46.09-.93.15-1.38.24a13.48,13.48,0,0,0-2.12.56c-.77.29-1.7.44-2.54.68s-1.41.42-2.11.63c-1.3.41-2.61.81-3.86,1.26s-2.56,1-3.8,1.51c-.6.25-1.19.52-1.77.79l-.43.13a12.47,12.47,0,0,1,3-1.6l-.13-.08-1.1.43-.1,0,.46-.35a1.62,1.62,0,0,0-.44.18,9.06,9.06,0,0,1-.83.38,14.25,14.25,0,0,1-2,.76c-.06,0-.1.07-.16.09L0,26.71l0,0c.29-.11.71-.15.75-.41A.49.49,0,0,1,1,26,26.71,26.71,0,0,0,4,24.41a.77.77,0,0,1,.18-.1c1-.42,1.92-.83,2.9-1.24a3.73,3.73,0,0,0,.39-.25,1.26,1.26,0,0,1,.26-.13c.4-.12.84-.21,1.22-.35.93-.34,1.84-.71,2.79-1,.55-.19,1.14-.34,1.7-.52l3-.92c1-.3,2.05-.58,3.09-.86s2.09-.56,3.16-.82c.74-.19,1.49-.35,2.24-.52.9-.2,1.79-.42,2.7-.57.48-.08,1-.05,1.49-.1a7.27,7.27,0,0,0,1-.18c1.38-.3,2.86-.32,4.24-.7a1.94,1.94,0,0,1,.24,0c.69-.09,1.38-.14,2-.25a13.27,13.27,0,0,1,2.61-.25,8.57,8.57,0,0,0,1.82-.31s0-.09.06-.13h.1a2.8,2.8,0,0,0,.63.12c.86,0,1.73,0,2.59-.07A7.26,7.26,0,0,0,45.46,15Z"/></g></g></svg>