<svg xmlns="http://www.w3.org/2000/svg" viewBox="0 0 268.19 163.28"><defs><style>.cls-1{fill:#1d1d1b;}.cls-2,.cls-4,.cls-6{fill:#ce0e2d;}.cls-2{fill-rule:evenodd;}.cls-3,.cls-5{fill:#fff;}.cls-3{stroke:#fff;stroke-width:0.72px;}.cls-3,.cls-4{stroke-miterlimit:3.86;}.cls-4{stroke:#ce0e2d;stroke-width:0.68px;}</style></defs><title>Recurso 4</title><g id="Capa_2" data-name="Capa 2"><g id="Capa_3" data-name="Capa 3"><path class="cls-1" d="M154.49,49.68a8.33,8.33,0,0,0-3.12-.79c-1.05,0-1.88.47-1.88,1.53,0,2.2,5.94,2.53,5.94,6.27,0,2.33-1.88,3.54-4.58,3.54a13.81,13.81,0,0,1-3.45-.53V57.52a6.67,6.67,0,0,0,3.52,1.21c1.66,0,2.18-.92,2.18-1.73,0-2.7-5.93-2.87-5.93-6.4,0-2.21,1.93-3.21,4.27-3.21a15.21,15.21,0,0,1,3.05.35Z"/><path class="cls-1" d="M163.36,59.88a7.39,7.39,0,0,1-2.4.35c-2.78,0-4.33-1.79-4.33-4.94,0-2.4,1.09-4,3.68-4,2.19,0,3.27,1.39,3.27,3.48v.49h-5.09c0,1.18.81,3.6,3.23,3.6a5.46,5.46,0,0,0,1.64-.32ZM161.68,54a1.4,1.4,0,0,0-1.51-1.48A1.62,1.62,0,0,0,158.54,54Z"/><path class="cls-1" d="M165.47,51.45h2V53h0a2.85,2.85,0,0,1,2.78-1.78v2.09c-2,0-2.82.85-2.82,2.92V60h-2Z"/><path class="cls-1" d="M170.59,51.45h2.09l1.92,5.87h0l1.93-5.87h2.09L175.59,60h-2Z"/><path class="cls-1" d="M180,47.59h2v2h-2Zm0,3.86h2V60h-2Z"/><path class="cls-1" d="M191.08,59.83a8.68,8.68,0,0,1-2.51.4c-2.58,0-4.6-1.39-4.6-4.87,0-2.23,1.14-4.11,3.93-4.11,2.58,0,3.27,1.55,3.27,3.14H189c0-.83-.22-1.73-1.3-1.73s-1.64,1-1.64,2.34c0,1.75.94,3.82,3.53,3.82a4.17,4.17,0,0,0,1.45-.22Z"/><path class="cls-1" d="M192.63,47.59h2v2h-2Zm0,3.86h2V60h-2Z"/><path class="cls-1" d="M196.68,55.74c0-2.81,1.32-4.49,3.79-4.49s3.79,1.68,3.79,4.49-1.32,4.49-3.79,4.49S196.68,58.55,196.68,55.74Zm3.79,3.08c1.44,0,1.66-1.48,1.66-3.08s-.22-3.08-1.66-3.08-1.66,1.47-1.66,3.08S199,58.82,200.47,58.82Z"/><path class="cls-1" d="M210.66,53.27a4.31,4.31,0,0,0-1.91-.58c-.62,0-1.34.29-1.34.8,0,1.13,3.77,1.71,3.77,4.16,0,1.76-1.35,2.58-3.24,2.58a6.81,6.81,0,0,1-2.28-.35V58.15a5.69,5.69,0,0,0,2.19.53c.48,0,1.47-.09,1.47-.78,0-1-3.69-1.86-3.69-4.13,0-1.6,1.22-2.52,3.08-2.52a7.1,7.1,0,0,1,1.95.33Z"/><path class="cls-1" d="M147.87,67h3.21c1.93,0,4.36.29,4.36,3.59,0,3-2.63,3.55-4.36,3.55H150v5.3h-2.11ZM150,72.62h1.1a2,2,0,0,0,2.22-2.05c0-1.6-.83-2.09-2.22-2.09H150Z"/><path class="cls-1" d="M161.7,77.81h0a2.74,2.74,0,0,1-2.55,1.81c-1.26,0-2.32-.87-2.32-2.83v-6h2v4.9c0,1.75.18,2,.88,2,1.34,0,2-1.82,2-3.19V70.84h2v8.58h-2Zm-1.37-11.47h2.17l-1.5,3h-1.5Z"/><path class="cls-1" d="M168,71.87h0a2.5,2.5,0,0,1,2.22-1.23c2.06,0,3,1.75,3,4.49,0,2.4-.83,4.49-3.63,4.49-2.25,0-3.59-1.28-3.59-3.84V67h2Zm1.58,6.34c1.28,0,1.5-1.67,1.5-3.08s-.16-3.21-1.5-3.21S168,73.69,168,75.13C168,77.27,168.32,78.21,169.58,78.21Z"/><path class="cls-1" d="M175.28,67h2V79.42h-2Z"/><path class="cls-1" d="M180,67h2v2h-2Zm0,3.86h2v8.58h-2Z"/><path class="cls-1" d="M191.08,79.22a8.68,8.68,0,0,1-2.51.4c-2.58,0-4.6-1.39-4.6-4.87,0-2.23,1.14-4.11,3.93-4.11,2.58,0,3.27,1.55,3.27,3.14H189c0-.83-.22-1.73-1.3-1.73s-1.64,1-1.64,2.34c0,1.75.94,3.82,3.53,3.82a4.17,4.17,0,0,0,1.45-.22Z"/><path class="cls-1" d="M192,75.13c0-2.81,1.32-4.49,3.79-4.49s3.79,1.68,3.79,4.49-1.32,4.49-3.79,4.49S192,77.94,192,75.13Zm3.79,3.08c1.44,0,1.66-1.48,1.66-3.08s-.22-3.08-1.66-3.08-1.66,1.48-1.66,3.08S194.36,78.21,195.8,78.21Z"/><path class="cls-1" d="M206,72.66a4.31,4.31,0,0,0-1.91-.58c-.62,0-1.34.29-1.34.8,0,1.13,3.77,1.71,3.77,4.16,0,1.77-1.35,2.58-3.24,2.58a6.81,6.81,0,0,1-2.28-.35V77.54a5.51,5.51,0,0,0,2.19.53c.48,0,1.47-.09,1.47-.78,0-1-3.69-1.85-3.69-4.12,0-1.61,1.22-2.53,3.08-2.53a7.1,7.1,0,0,1,2,.33Z"/><path class="cls-2" d="M205.88,126.4V114c14.73-.13,27.2-5.45,37.07-16.33a47.74,47.74,0,0,0,12.63-36.27,47.79,47.79,0,0,0-15.66-33c-9.55-8.88-21-13.13-34-13.26V2.71c21,.43,38,8.73,50.47,25.65a61.77,61.77,0,0,1-50.48,98Z"/><path class="cls-3" d="M.36,64.56a64.21,64.21,0,1,1,64.2,64.21A64.2,64.2,0,0,1,.36,64.56Z"/><path class="cls-4" d="M3.44,64.56a61.13,61.13,0,1,1,61.12,61.13A61.11,61.11,0,0,1,3.44,64.56Z"/><polygon class="cls-5" points="82.48 25.2 105.77 25.2 108.46 38.6 101.03 38.6 105.88 71.51 95.2 72.02 91.53 38.6 83.4 38.6 82.48 25.2 82.48 25.2"/><path class="cls-5" d="M25,25.22l9.07,0L30.41,50.81c-.42,3.06.33,5.42,3,5.4,3.7,0,4.5-2.72,4.87-6.66.16-1.64,2.81-24.35,2.81-24.35h9.27L47.54,64.64,36,70.58l-10,2s-9.52-2-7.74-11.29C20.75,48.34,25,25.22,25,25.22Z"/><path class="cls-5" d="M80.31,35.33l-.19-3.6c-.65-5.55-3.93-6.49-6.32-6.75a77.65,77.65,0,0,0-13,0c-.25,0-6.9-.11-7.2,8.47-.32,9.24-1.76,31.21-1.76,31.21l11,2.45,10.24-3L82,66.83l-1.56-28.2H66.11l0,7.6h4.45c0,5.41.47,9-3.68,9.24a4,4,0,0,1-4.06-4.41c0-5.54.15-16,.15-16s.11-3.68,3.78-3.68c0,0,3.58-.3,3.58,4l10,0Z"/><polygon class="cls-1" points="63.42 44.69 63.5 44.69 63.5 44.77 63.42 44.77 63.42 44.69 63.42 44.69"/><path class="cls-5" d="M64.47,64.63c11.28-4,14.8-3.8,23.5,1.22,5.92,3.41,15.68,3.51,15.68,3.51h9l4.13,21.11H97.5c-.62,7.12-6.79,5.75-6.79,5.75-.17,6.08-7.48,5.31-7.48,5.31-2.77,6.71-9.89,3.59-9.89,3.59-4.51,4.46-8,1.59-8.87.51-.92,1.08-4.2,3.91-8.71-.55,0,0-7.92,2.61-10-3.55,0,0-7.31.77-7.48-5.31,0,0-7,1.14-6.79-5.75H12.36l4.33-21.11h8.6s9.76-.1,15.68-3.51c8.7-5,12.22-5.26,23.5-1.22Z"/><path class="cls-6" d="M69.38,71.48s3.15-.34,1.19,2.31L69,75.63s8.7,7.05,18.09,2.7a4.42,4.42,0,0,1,2.48-.6c.24.08,2.44.82-.84,2.43a85.34,85.34,0,0,1,7.67,6.49h15.45l-2.63-13.71L108,73c-3.47-.08-14.47.58-22-3.88C83,67.45,72.25,60,57.8,72.23l-3.3,2.36s-4,2.34.3,3.47,8.93-1.45,13.84-5.92l.74-.66Z"/><path class="cls-6" d="M59.49,67.17a15.86,15.86,0,0,0-15.42,1.35,35.69,35.69,0,0,1-17.8,4.4H19.72L17.17,86.65H33.48s4.35-4.46,7.28-4.31a4.54,4.54,0,0,1,4.55,3.89c5.24-2.42,8.14,1.33,8.35,3,3.18-2,8.25-.17,8.44,3.57,4.64-.66,8.23,2.47,4.15,9.4a2.31,2.31,0,0,0,2.93,1.46c2.35-.59,1.94-4,1.94-4l.49-.22s3.6,4.55,6.59,2.43c2.44-1.72.59-4.5-.46-5.92l.38-.28c3.15,3.12,6.66,3.43,8.08,1.79,2.12-2.45-1.12-5.29-2.69-6.92.29-.35.31-.27.49-.49,2.86,2.35,7.52,4.29,9.22,1.65,2-3-2.35-6.2-8.16-10.12,0,0-10.2,2.13-18.2-4,0,0-9.22,6.49-15.77,2.47C49.34,79,47.63,76.82,49.75,75c3.27-2.76,4-3.34,9.13-7.37l.61-.47Z"/><path class="cls-2" d="M41.38,86.24c.91.82.61,2.09-.4,3.13l-2.14,2.42a2.27,2.27,0,0,1-3.24.42h0a2.07,2.07,0,0,1,0-3.14l2.36-2.19c1-1,2.53-1.46,3.44-.64Z"/><path class="cls-2" d="M49.14,89.35a2.35,2.35,0,0,1,.17,3.37L46,96.93a2.15,2.15,0,0,1-3.28.38h0a2.38,2.38,0,0,1-.44-3.38l3.45-3.85a2.53,2.53,0,0,1,3.41-.73Z"/><path class="cls-2" d="M57.5,92a2.14,2.14,0,0,1,.7,3.13l-3.6,5.65a3.13,3.13,0,0,1-3.8,1h0a2.5,2.5,0,0,1-1-3.37l4.1-5.44a2.82,2.82,0,0,1,3.57-1Z"/><path class="cls-6" d="M63.6,96.31c1.11.54,1.18,1.84.51,3.11l-1.36,2.9a2.24,2.24,0,0,1-3,1.26h0a2.08,2.08,0,0,1-.74-3.06l1.6-2.74c.67-1.27,1.87-2,3-1.47Z"/><path class="cls-2" d="M133.92,139.84v23.37H4V139.84Z"/><path class="cls-2" d="M266.38,163.25l-.46,0H253.09V139.84h13.29Z"/><path class="cls-1" d="M146.1,145.26v7.24c0,3,1.42,4.38,3.4,4.38,2.14,0,3.54-1.39,3.54-4.38v-7.24h1.73v7.16c0,4.12-2.3,5.83-5.36,5.83-2.83,0-5-1.56-5-5.8v-7.19Z"/><path class="cls-1" d="M157.79,151.38c0-.92,0-1.75-.07-2.51h1.53l.1,1.64h.05a3.74,3.74,0,0,1,3.34-1.87c1.25,0,3.56.7,3.56,4.15V158h-1.72V153c0-1.61-.68-2.9-2.4-2.9a2.74,2.74,0,0,0-2.53,1.78,2.24,2.24,0,0,0-.13.76V158h-1.73Z"/><path class="cls-1" d="M171.2,146.21a1.09,1.09,0,0,1-2.18,0,1.07,1.07,0,0,1,1.1-1.07A1,1,0,0,1,171.2,146.21ZM169.25,158v-9.16H171V158Z"/><path class="cls-1" d="M174.59,148.87l2,5.13c.37.93.63,1.66.86,2.41h0c.25-.76.55-1.52.9-2.41l2-5.13h1.84l-4,9.16h-1.69l-3.85-9.16Z"/><path class="cls-1" d="M184.67,153.81c0,2.06,1.58,3.1,3.46,3.1a7.07,7.07,0,0,0,2.87-.51l.31,1.22a8.39,8.39,0,0,1-3.4.63c-3,0-4.89-1.9-4.89-4.63a4.66,4.66,0,0,1,4.71-5c3.36,0,4.15,2.84,4.15,4.4a3.66,3.66,0,0,1-.06.77Zm5.54-1.24a2.52,2.52,0,0,0-2.61-2.72,3,3,0,0,0-2.91,2.72Z"/><path class="cls-1" d="M194.13,151.88c0-1.18,0-2.11-.08-3h1.52l.06,1.92h.06a3,3,0,0,1,2.76-2.15,1.77,1.77,0,0,1,.52.06v1.59a3.16,3.16,0,0,0-.66-.06,2.43,2.43,0,0,0-2.38,2.2,3.77,3.77,0,0,0-.08.76V158h-1.72Z"/><path class="cls-1" d="M200.6,156.27a5.06,5.06,0,0,0,2.45.71c1.35,0,1.92-.63,1.92-1.37s-.56-1.24-1.88-1.64c-1.8-.54-2.63-1.48-2.62-2.6,0-1.47,1.22-2.73,3.38-2.73a4.84,4.84,0,0,1,2.44.6l-.42,1.24a4.19,4.19,0,0,0-2.1-.58c-1.05,0-1.63.56-1.63,1.29s.64,1.14,1.94,1.55c1.75.56,2.57,1.34,2.58,2.74,0,1.55-1.27,2.77-3.65,2.77a5.94,5.94,0,0,1-2.83-.67Z"/><path class="cls-1" d="M211,146.21a1.06,1.06,0,0,1-1.12,1.06,1,1,0,0,1-1.06-1.06,1.06,1.06,0,0,1,1.09-1.07A1.05,1.05,0,0,1,211,146.21ZM209,158v-9.16h1.73V158Z"/><path class="cls-1" d="M222.44,144.47v11.14c0,.88,0,1.75.08,2.42H221l-.08-1.73h0a3.78,3.78,0,0,1-3.5,1.95,4.39,4.39,0,0,1-4.35-4.64,4.63,4.63,0,0,1,4.57-5,3.56,3.56,0,0,1,3.12,1.49h0v-5.66Zm-1.72,8.21a3.14,3.14,0,0,0-.09-.75,2.77,2.77,0,0,0-2.76-2c-1.9,0-3.13,1.45-3.13,3.53a3.07,3.07,0,0,0,3.11,3.37,2.86,2.86,0,0,0,2.78-2.14,3,3,0,0,0,.09-.75Z"/><path class="cls-1" d="M231,158l-.17-1.22h0a3.94,3.94,0,0,1-3.13,1.44,2.72,2.72,0,0,1-3-2.63c0-2.19,2-3.48,6-3.44V152a2,2,0,0,0-2.29-2.12,5,5,0,0,0-2.68.75l-.4-1.14a6.36,6.36,0,0,1,3.32-.87c3.12,0,3.77,2.15,3.77,3.91v3.24a13.85,13.85,0,0,0,.15,2.24Zm-.28-4.66c-2.15-.05-4.31.33-4.31,2a1.54,1.54,0,0,0,1.7,1.59,2.65,2.65,0,0,0,2.52-1.59,1.46,1.46,0,0,0,.09-.52Z"/><path class="cls-1" d="M244.05,144.47v11.14c0,.88,0,1.75.07,2.42h-1.55l-.08-1.73h0a3.78,3.78,0,0,1-3.5,1.95,4.4,4.4,0,0,1-4.36-4.64,4.63,4.63,0,0,1,4.57-5,3.57,3.57,0,0,1,3.13,1.49h0v-5.66Zm-1.73,8.21a3.13,3.13,0,0,0-.08-.75,2.79,2.79,0,0,0-2.77-2c-1.89,0-3.13,1.45-3.13,3.53a3.07,3.07,0,0,0,3.12,3.37,2.86,2.86,0,0,0,2.77-2.14,2.62,2.62,0,0,0,.09-.75Z"/><path class="cls-5" d="M23.54,144.9h7.24v1.59H25.64v3.58h4.87v1.59H25.64v4h5.28v1.6H23.54Z"/><path class="cls-5" d="M34.76,152.83l-2.82-4.09h2.28l1.64,2.33,1.63-2.33h2.28l-2.77,4,3.18,4.54h-2.3l-2-2.93-2,2.93H31.53Z"/><path class="cls-5" d="M46.45,157.33a10.1,10.1,0,0,1-1.64.15c-2.26,0-2.62-1.08-2.62-2.35v-5H40.52v-1.38h1.67v-2l2-1.2v3.23h2.53v1.38H44.19v4c0,1,.12,1.92,1.34,1.92a3.93,3.93,0,0,0,.92-.15Z"/><path class="cls-5" d="M48,148.74h2v1.58h0a2.82,2.82,0,0,1,2.76-1.78v2.08c-2,0-2.8.84-2.8,2.91v3.75H48Z"/><path class="cls-5" d="M60.54,157.14a7.66,7.66,0,0,1-2.39.34c-2.76,0-4.31-1.78-4.31-4.92,0-2.39,1.08-4,3.66-4,2.17,0,3.25,1.38,3.25,3.46v.49H55.69c0,1.18.81,3.59,3.21,3.59a5.14,5.14,0,0,0,1.64-.33Zm-1.67-5.85a1.4,1.4,0,0,0-1.51-1.48,1.59,1.59,0,0,0-1.61,1.48Z"/><path class="cls-5" d="M62.67,148.74h2v1.31h0a2.35,2.35,0,0,1,2.24-1.51,2,2,0,0,1,2.16,1.7h0a2.66,2.66,0,0,1,2.41-1.7c1.25,0,2.31.86,2.31,2.82v5.92h-2V152.4c0-1.74-.18-2-.88-2-1.15,0-1.72,1.83-1.72,3.17v3.7h-2V152.4c0-1.74-.18-2-.88-2-1.15,0-1.72,1.83-1.72,3.17v3.7h-2Z"/><path class="cls-5" d="M80.64,156.29h0a2.21,2.21,0,0,1-2.22,1.19,2.28,2.28,0,0,1-2.51-2.25c0-2.83,3.59-2.85,4.77-2.89v-.84c0-.84-.22-1.56-1.2-1.56a1.18,1.18,0,0,0-1.31,1.31H76.19c0-1.63,1.08-2.71,3.25-2.71s3.1.91,3.1,2.66v6.08h-1.9Zm-1.78-.21c1.3,0,1.78-1.4,1.78-2.57-1.29,0-2.84.4-2.84,1.54A.94.94,0,0,0,78.86,156.08Z"/><path class="cls-5" d="M89.51,156.09h0a2.53,2.53,0,0,1-2.13,1.39c-2.28,0-2.93-2.08-2.93-4.47s.88-4.47,2.93-4.47a2.36,2.36,0,0,1,2.13,1.22h0V144.9h2v12.38h-2ZM88,155.93c1.11,0,1.51-1.56,1.51-2.92,0-1.58-.36-2.93-1.51-2.93-1.31,0-1.47,1.51-1.47,2.93S86.74,155.93,88,155.93Z"/><path class="cls-5" d="M98.77,155.68h0a2.7,2.7,0,0,1-2.53,1.8c-1.25,0-2.31-.87-2.31-2.82v-5.92h2v4.88c0,1.74.18,2,.88,2,1.33,0,2-1.81,2-3.18v-3.69h2v8.54h-2Z"/><path class="cls-5" d="M103.19,148.74h2v1.58h0a2.84,2.84,0,0,1,2.77-1.78v2.08c-2,0-2.8.84-2.8,2.91v3.75h-2Z"/><path class="cls-5" d="M113.88,156.29h0a2.22,2.22,0,0,1-2.23,1.19,2.28,2.28,0,0,1-2.51-2.25c0-2.83,3.59-2.85,4.77-2.89v-.84c0-.84-.21-1.56-1.2-1.56a1.18,1.18,0,0,0-1.31,1.31h-1.94c0-1.63,1.08-2.71,3.25-2.71s3.11.91,3.11,2.66v6.08h-1.91Zm-1.77-.21c1.29,0,1.77-1.4,1.77-2.57-1.29,0-2.83.4-2.83,1.54A.94.94,0,0,0,112.11,156.08Z"/></g></g></svg>